<?xml version="1.0" encoding="UTF-8" standalone="no"?><!-- Generator: Gravit.io --><svg xmlns="http://www.w3.org/2000/svg" xmlns:xlink="http://www.w3.org/1999/xlink" style="isolation:isolate" viewBox="0 0 344.8 344.8" width="344.8pt" height="344.8pt"><defs><clipPath id="_clipPath_rL3P5nDO3TBK73ug48MHfmlF34WLtWdQ"><rect width="344.8" height="344.8"/></clipPath></defs><g clip-path="url(#_clipPath_rL3P5nDO3TBK73ug48MHfmlF34WLtWdQ)"><g><g><path d=" M 344.8 172.4 C 344.8 267.6 267.6 344.8 172.4 344.8 C 77.2 344.8 0 267.6 0 172.4 C 0 77.2 77.2 0 172.4 0 C 267.6 0 344.8 77.2 344.8 172.4 Z " fill-rule="evenodd" fill="rgb(112,21,15)"/><g><path d=" M 283.7 123.7 L 250 115.2 C 240.5 142.6 185.8 198.5 185.8 198.5 C 177.1 127.1 202.4 71.3 202.4 71.3 L 188.2 51.8 C 185.1 54.3 132.5 71.1 132.5 71.1 C 132.7 77.7 105.8 171.3 65 228.6 C 58.7 237.5 48.4 249.1 41.8 256.6 C 46.8 264.8 82.7 263.7 96.4 252.3 C 106.4 244 111.9 231.6 118.3 221.5 C 141.3 185.3 142.7 143.8 142.7 143.8 C 145.4 152.6 143.9 175.4 142.4 187.5 C 140.3 204.9 137 220.9 140.7 238.4 C 141.3 241.4 146 261.1 150.2 261 C 150.3 261 192.4 259.6 192.4 259.6 L 238.9 196 L 243.3 258 C 270.9 273 288.6 254.9 288.6 254.9 C 275.3 233.9 283.7 123.7 283.7 123.7 Z " fill="rgb(255,255,255)"/><linearGradient id="_lgradient_0" x1="0.4281680327062656" y1="0.2037035825459701" x2="0.48098865782081013" y2="0.8206835521234281" gradientTransform="matrix(49.8,0,0,139.648,238.9,124.4)" gradientUnits="userSpaceOnUse"><stop offset="0%" stop-opacity="1" style="stop-color:rgb(210,183,177)"/><stop offset="100%" stop-opacity="1" style="stop-color:rgb(255,255,255)"/></linearGradient><path d=" M 283.6 124.4 C 275.5 146 265 169.9 238.9 195.4 L 243.4 258.1 C 271 273.1 288.7 255 288.7 255 C 275.9 234.9 282.9 133.8 283.6 124.4 Z " fill="url(#_lgradient_0)"/><linearGradient id="_lgradient_1" x1="1.0951575759538805" y1="0.19292071777356423" x2="0.6417123992850955" y2="1.052654872796817" gradientTransform="matrix(62.801,0,0,156,79.9,72.7)" gradientUnits="userSpaceOnUse"><stop offset="0%" stop-opacity="1" style="stop-color:rgb(210,183,177)"/><stop offset="100%" stop-opacity="1" style="stop-color:rgb(255,255,255)"/></linearGradient><path d=" M 79.9 206.4 L 113.7 228.7 C 138.2 191.9 141.2 148 142.7 144.2 C 142.8 121.2 136.1 89.1 132.2 72.7 C 129.4 84.4 112.5 154.8 79.9 206.4 Z " fill="url(#_lgradient_1)"/></g></g></g></g></svg>